<svg width="22" height="16" viewBox="0 0 22 16" fill="none" xmlns="http://www.w3.org/2000/svg">
<g id="Frame" >
<g id="Group">
<path id="Vector" d="M4.50391 13.166H2.50391C2.3713 13.166 2.24412 13.1133 2.15035 13.0196C2.05658 12.9258 2.00391 12.7986 2.00391 12.666C2.00391 12.5334 2.05658 12.4062 2.15035 12.3125C2.24412 12.2187 2.3713 12.166 2.50391 12.166H4.50391C4.63651 12.166 4.76369 12.2187 4.85746 12.3125C4.95123 12.4062 5.00391 12.5334 5.00391 12.666C5.00391 12.7986 4.95123 12.9258 4.85746 13.0196C4.76369 13.1133 4.63651 13.166 4.50391 13.166ZM20.7539 13.166H19.5039C19.3713 13.166 19.2441 13.1133 19.1503 13.0196C19.0566 12.9258 19.0039 12.7986 19.0039 12.666C19.0039 12.5334 19.0566 12.4062 19.1503 12.3125C19.2441 12.2187 19.3713 12.166 19.5039 12.166H20.3389L21.0129 8.57401C21.0039 6.73601 19.4339 5.16602 17.5039 5.16602H14.2209L12.6299 12.166H15.5039C15.6365 12.166 15.7637 12.2187 15.8575 12.3125C15.9512 12.4062 16.0039 12.5334 16.0039 12.666C16.0039 12.7986 15.9512 12.9258 15.8575 13.0196C15.7637 13.1133 15.6365 13.166 15.5039 13.166H12.0039C11.9289 13.166 11.8548 13.1492 11.7872 13.1167C11.7195 13.0842 11.6601 13.0369 11.6132 12.9784C11.5663 12.9198 11.5333 12.8514 11.5164 12.7783C11.4996 12.7052 11.4994 12.6292 11.5159 12.556L13.3339 4.55602C13.3589 4.44526 13.4208 4.34631 13.5095 4.27542C13.5982 4.20454 13.7084 4.16596 13.8219 4.16602H17.5039C19.9849 4.16602 22.0039 6.18501 22.0039 8.66601L21.2449 12.758C21.2236 12.8727 21.1629 12.9763 21.0732 13.0508C20.9835 13.1253 20.8705 13.1661 20.7539 13.166Z" fill="white"/>
<path id="Vector_2" d="M17.5 15.166C16.122 15.166 15 14.045 15 12.666C15 11.287 16.122 10.166 17.5 10.166C18.878 10.166 20 11.287 20 12.666C20 14.045 18.878 15.166 17.5 15.166ZM17.5 11.166C16.673 11.166 16 11.839 16 12.666C16 13.493 16.673 14.166 17.5 14.166C18.327 14.166 19 13.493 19 12.666C19 11.839 18.327 11.166 17.5 11.166ZM6.5 15.166C5.122 15.166 4 14.045 4 12.666C4 11.287 5.122 10.166 6.5 10.166C7.878 10.166 9 11.287 9 12.666C9 14.045 7.878 15.166 6.5 15.166ZM6.5 11.166C5.673 11.166 5 11.839 5 12.666C5 13.493 5.673 14.166 6.5 14.166C7.327 14.166 8 13.493 8 12.666C8 11.839 7.327 11.166 6.5 11.166ZM4.5 4.16602H0.499999C0.367391 4.16602 0.240214 4.11334 0.146446 4.01957C0.0526776 3.9258 -8.34465e-07 3.79862 -8.34465e-07 3.66602C-8.34465e-07 3.53341 0.0526776 3.40623 0.146446 3.31246C0.240214 3.21869 0.367391 3.16602 0.499999 3.16602H4.5C4.63261 3.16602 4.75978 3.21869 4.85355 3.31246C4.94732 3.40623 5 3.53341 5 3.66602C5 3.79862 4.94732 3.9258 4.85355 4.01957C4.75978 4.11334 4.63261 4.16602 4.5 4.16602ZM4.5 7.16601H-0.500001C-0.632609 7.16601 -0.759786 7.11334 -0.853554 7.01957C-0.947322 6.9258 -1 6.79862 -1 6.66601C-1 6.53341 -0.947322 6.40623 -0.853554 6.31246C-0.759786 6.21869 -0.632609 6.16601 -0.500001 6.16601H4.5C4.63261 6.16601 4.75978 6.21869 4.85355 6.31246C4.94732 6.40623 5 6.53341 5 6.66601C5 6.79862 4.94732 6.9258 4.85355 7.01957C4.75978 7.11334 4.63261 7.16601 4.5 7.16601ZM4.5 10.166H-1.5C-1.63261 10.166 -1.75979 10.1133 -1.85355 10.0196C-1.94732 9.9258 -2 9.79862 -2 9.66601C-2 9.5334 -1.94732 9.40623 -1.85355 9.31246C-1.75979 9.21869 -1.63261 9.16601 -1.5 9.16601H4.5C4.63261 9.16601 4.75978 9.21869 4.85355 9.31246C4.94732 9.40623 5 9.5334 5 9.66601C5 9.79862 4.94732 9.9258 4.85355 10.0196C4.75978 10.1133 4.63261 10.166 4.5 10.166Z" fill="white"/>
<path id="Vector_3" d="M12.0039 13.166H8.5039C8.37129 13.166 8.24412 13.1133 8.15035 13.0196C8.05658 12.9258 8.0039 12.7986 8.0039 12.666C8.0039 12.5334 8.05658 12.4062 8.15035 12.3125C8.24412 12.2187 8.37129 12.166 8.5039 12.166H11.6049L13.8769 2.16602H2.50391C2.3713 2.16602 2.24412 2.11334 2.15035 2.01957C2.05658 1.9258 2.00391 1.79862 2.00391 1.66602C2.00391 1.53341 2.05658 1.40623 2.15035 1.31246C2.24412 1.21869 2.3713 1.16602 2.50391 1.16602H14.5039C14.5789 1.16598 14.653 1.18283 14.7206 1.21531C14.7883 1.24779 14.8477 1.29508 14.8946 1.35367C14.9415 1.41225 14.9745 1.48064 14.9914 1.55375C15.0082 1.62686 15.0084 1.70283 14.9919 1.77602L12.4919 12.776C12.4669 12.8868 12.405 12.9857 12.3163 13.0566C12.2276 13.1275 12.1174 13.1661 12.0039 13.166Z" fill="white"/>
</g>
</g>
<defs>
<clipPath id="clip0_378_3374">
<rect width="22" height="15" fill="white" transform="translate(0 0.5)"/>
</clipPath>
</defs>
</svg>
